<svg 
  version="1.0" 
  xmlns="http://www.w3.org/2000/svg" 
  width="200"
  height="200"
  viewBox="0 0 150 150"
>
  <path 
    fill="white" 
    d="M66 36c-5 2-10 8-11 14v10l4 7c2 2 1 3-3 6-5 3-6 5-3 10 1 3 2 3 5 3 4 0 4 0 4 2l-3 8c-2 5-4 7-14 15-6 4-9 12-9 19v6h78v-7c-1-8-4-14-10-19-10-8-15-14-16-21 0-2 0-2 4-3 3 0 4-1 6-3 2-5 2-7-3-10l-5-3 3-5c7-14-2-31-18-31l-9 2zm18 3c5 4 8 9 8 15s-1 10-5 13l-3 3 6 4c6 3 7 4 5 7-1 2-2 2-6 2-6 0-6 0-3 9 2 8 6 13 13 18 8 6 11 10 12 18v5H39v-3c0-8 2-12 15-23 6-5 10-12 12-20v-4h-5c-6 0-7-1-7-4 0-1 2-3 6-5l5-4-3-4c-13-15 4-37 22-27z"
  />
</svg>