<svg xmlns="http://www.w3.org/2000/svg" width="60" height="60" version="1.0" viewBox="0 0 45 45"><path d="M21.1 6.8c-1.2 1.2-1.2 1.5 0 2.2 1.1.7 1 1.2-.4 2.8-.9 1-1.7 2.4-1.7 3.1 0 .9-1.2 1.1-4.2.7l-4.3-.6 4 1.5c2.2.9 4.9 2.4 6 3.5 1.9 1.9 1.9 1.9 4 0 1.1-1.1 3.9-2.6 6-3.5l4-1.5-4.2.6c-3.1.4-4.3.2-4.3-.7 0-.7-.8-2.1-1.7-3.1-1.4-1.6-1.5-2.1-.3-2.8 1.1-.7 1.1-1-.1-2.3-1.3-1.2-1.6-1.2-2.8.1zM6.9 17.7c-1.3 1.7-1.3 1.7.6.3 1.1-.8 2.2-1.6 2.4-1.7.2-.2 0-.3-.6-.3s-1.7.8-2.4 1.7zM35.1 16.3c.2.1 1.3.9 2.4 1.7 1.9 1.4 1.9 1.4.6-.3-.7-.9-1.8-1.7-2.4-1.7-.6 0-.8.1-.6.3zM8 20c-1.2 2.3-.1 5.1 3 7.3 1.5 1.1 2.9 1.1 6.5.3 5.3-1.3 5.7-2.7 1.4-6.7-3.8-3.6-9.2-4-10.9-.9z"/><path d="M26.1 20.9c-4.3 4-3.9 5.4 1.4 6.7 3.6.8 5 .8 6.5-.3 5.3-3.7 4.5-9.3-1.4-9.3-2.4 0-4.3.9-6.5 2.9zM5.2 22c0 1.4.2 1.9.5 1.2.2-.6.2-1.8 0-2.5-.3-.6-.5-.1-.5 1.3zM39.2 22c0 1.4.2 1.9.5 1.2.2-.6.2-1.8 0-2.5-.3-.6-.5-.1-.5 1.3zM8 27.5c1.3 1.4 2.6 2.5 2.8 2.5.3 0-.5-1.1-1.8-2.5S6.4 25 6.2 25c-.3 0 .5 1.1 1.8 2.5zM35.9 27.7l-2.4 2.8 2.8-2.4c1.5-1.4 2.7-2.6 2.7-2.8 0-.8-.8-.1-3.1 2.4zM14.3 30c-3.3 1.3-3 3.2.3 2 3.3-1.3 12.5-1.3 15.8 0 1.7.6 2.6.6 2.6 0 0-2.7-13.6-4.1-18.7-2z"/><path d="M15.3 33.1c-1.8.5-3.3 1.4-3.3 2 0 .6.8.7 2.3.2 1.2-.4 4.9-.8 8.2-.8 3.3 0 7 .4 8.3.8 1.3.5 2.2.4 2.2-.2 0-2.5-11.4-3.8-17.7-2zM14.5 36.9c-1.9.8-1.9.8.2 1.9 2.8 1.5 12.8 1.5 15.6 0 2.1-1.1 2.1-1.1.2-1.9-1.1-.4-4.7-.8-8-.8s-6.9.4-8 .8z"/></svg>