<svg xmlns="http://www.w3.org/2000/svg" width="60" height="60" version="1.0" viewBox="0 0 45 45"><path d="M20.5 6c-.4.6-.4 2.3 0 3.7.7 3-.4 11.8-1.5 10.6-.4-.4-1.4-2.7-2.3-4.9-1.2-3.1-1.3-4.4-.4-5.3.8-.8.7-1.5-.6-2.8-1.6-1.6-1.8-1.6-3.4 0-1.5 1.4-1.5 1.8-.2 3.4 1 1.3 1.3 3.2.9 6.3l-.5 4.5-2.3-3.6c-1.2-2-2-4.3-1.7-5.1.3-.8-.1-2.1-1-2.8-1.3-1.1-1.9-1.1-3.2.3-1.4 1.4-1.4 1.8.5 4.1 1.1 1.5 2.3 4.8 2.7 7.4.9 6.7 1.7 7.7 4.6 6.1 3.1-1.7 17.7-1.7 20.8 0 2.9 1.6 3.7.6 4.6-6.1.4-2.6 1.6-5.9 2.7-7.4 1.9-2.3 1.9-2.7.5-4.1-1.3-1.4-1.9-1.4-3.2-.3-.9.7-1.3 2-1 2.8.3.8-.5 3.1-1.7 5.1l-2.3 3.6L32 17c-.4-3.1-.1-5 .9-6.3 1.3-1.6 1.3-2-.2-3.4-2.3-2.3-4.8-.1-4.1 3.5.5 2.8-2.2 10.9-3.3 9.8-.4-.3-.7-3.9-.7-7.9-.1-5.8-.4-7.2-1.8-7.5-.9-.2-1.9.2-2.3.8z"/><path d="M14.5 28.7c-5.7 1.5-2.9 2.3 8 2.3 9 0 11.6-.3 10.7-1.2-1.2-1.2-15.3-2.1-18.7-1.1zM10.5 34.1c-.9 2.7-.7 2.9 6.7 4.1C23.7 39.3 35 37.9 35 36c0-3.6-1.1-4-12.5-4-10.6 0-11.4.1-12 2.1zm12 1c3.4 0 7.5-.3 9.1-.7 2.4-.5 2.7-.4 1.6.7-1.8 2-19.6 2-21.4 0-1.1-1.1-.8-1.2 1.6-.7 1.6.4 5.7.7 9.1.7zM10.8 39.2c.6.6 1.8.8 2.8.6 1.4-.3 1.2-.5-.9-1-1.9-.3-2.5-.2-1.9.4zM32 39c-2.3.7-2.3.8-.3.9 1.2.1 2.5-.4 2.8-.9.3-.6.5-1 .3-.9-.2.1-1.4.5-2.8.9zM18.7 40.7c1.8.2 5 .2 7 0 2.1-.2.7-.4-3.2-.4-3.8 0-5.5.2-3.8.4z"/></svg>