<svg xmlns="http://www.w3.org/2000/svg" width="60" height="60" version="1.0" viewBox="0 0 45 45"><path d="M13 8.9c0 1.1-1.9 5.4-4.1 9.6-4.6 8.6-4.5 11.6.7 12.9 2.1.6 3.3.1 5.8-2.1 1.7-1.6 3.9-3.5 4.9-4.2 3.2-2.5 2 1.6-1.7 5.7-1.9 2.1-3.8 5-4.1 6.5l-.7 2.7h21.4l-.4-8.7c-.5-10.3-2.3-14.5-7.5-17.6-3.2-1.8-3.4-2.2-1.7-2.8 1.9-.7 1.9-.8 0-.8-1-.1-2.5-.9-3.1-1.8-1.3-1.7-1.4-1.7-3.3 0-1.7 1.6-2.1 1.6-3.2.2-1.7-2.1-3-1.9-3 .4zm3 5.8c0 .5-.4 1.5-1 2.3-1.1 1.8-2.5.7-1.7-1.5.6-1.5 2.7-2.1 2.7-.8zM10 26c0 .5-.4 1-1 1-.5 0-1-.5-1-1 0-.6.5-1 1-1 .6 0 1 .4 1 1z"/><path d="M31.2 14.3c4.1 4 5.8 9.5 6.1 18.9.1 3.7.6 6.8 1.1 6.8 1.2 0 0-13.4-1.5-18-1.6-4.5-4.5-8.7-7.1-10.1-1.2-.7-.7.3 1.4 2.4z"/></svg>