<svg xmlns="http://www.w3.org/2000/svg" width="60" height="60" version="1.0" viewBox="0 0 45 45"><path d="M10 11.9c0 1.6.7 3.4 1.5 4.1 1.7 1.4 2.2 14.5.5 15.5-.6.3-1 1.5-1 2.6 0 1-.7 1.9-1.5 1.9S8 36.9 8 38c0 1.9.7 2 14.5 2S37 39.9 37 38c0-1.1-.7-2-1.5-2s-1.5-.9-1.5-1.9c0-1.1-.4-2.3-1-2.6-1.7-1-1.2-14.1.5-15.5.8-.7 1.5-2.5 1.5-4.1 0-2.6-.4-2.9-3-2.9-1.6 0-3 .4-3 1 0 .5-.7 1-1.5 1s-1.5-.5-1.5-1c0-.6-1.6-1-3.5-1s-3.5.4-3.5 1c0 .5-.7 1-1.5 1s-1.5-.5-1.5-1c0-.6-1.3-1-3-1-2.6 0-3 .3-3 2.9zm18.8 2.8c-3.2.2-8.6.2-12 0-3.5-.2-.9-.3 5.7-.3 6.6 0 9.4.1 6.3.3zm-1.5 2c-2.3.2-6.4.2-9 0-2.6-.2-.8-.3 4.2-.3s7.1.1 4.8.3zm0 13c-2.3.2-6.4.2-9 0-2.6-.2-.8-.3 4.2-.3s7.1.1 4.8.3zm.5 2c-2.6.2-7.1.2-10 0-2.9-.2-.8-.3 4.7-.3s7.9.1 5.3.3zm.5 4c-2.9.2-7.8.2-11 0s-.8-.3 5.2-.3c6.1 0 8.7.1 5.8.3z"/></svg>