<svg xmlns="http://www.w3.org/2000/svg" width="60" height="60" version="1.0" viewBox="0 0 45 45"><path d="M10 11.9c0 1.6.7 3.4 1.5 4.1 1.7 1.4 2.2 14.5.5 15.5-.6.3-1 1.5-1 2.6 0 1-.7 1.9-1.5 1.9S8 36.9 8 38c0 1.9.7 2 14.5 2S37 39.9 37 38c0-1.1-.7-2-1.5-2s-1.5-.9-1.5-1.9c0-1.1-.4-2.3-1-2.6-1.7-1-1.2-14.1.5-15.5.8-.7 1.5-2.5 1.5-4.1 0-2.6-.4-2.9-3-2.9-1.6 0-3 .4-3 1 0 .5-.7 1-1.5 1s-1.5-.5-1.5-1c0-.6-1.6-1-3.5-1s-3.5.4-3.5 1c0 .5-.7 1-1.5 1s-1.5-.5-1.5-1c0-.6-1.3-1-3-1-2.6 0-3 .3-3 2.9zm4-.9c0 .5 1.6 1 3.5 1s3.5-.5 3.5-1c0-.6.7-1 1.5-1s1.5.4 1.5 1c0 .5 1.6 1 3.5 1s3.5-.5 3.5-1c0-.6.5-1 1-1 .6 0 1 .9 1 2 0 1.9-.7 2-10.5 2S12 13.9 12 12c0-1.1.5-2 1-2 .6 0 1 .4 1 1zm17.3 4.7c-.9.3-1.3 2.7-1.3 6.9V29H15v-6.4c0-4.2-.4-6.6-1.2-6.9-.7-.3 3.2-.5 8.7-.5 5.5 0 9.4.2 8.8.5zM31 31c0 .6-3.5 1-8.5 1s-8.5-.4-8.5-1 3.5-1 8.5-1 8.5.4 8.5 1zm1 3.5c0 1.2-1.7 1.5-9.5 1.5s-9.5-.3-9.5-1.5 1.7-1.5 9.5-1.5 9.5.3 9.5 1.5zm3 3.5c0 .6-4.8 1-12.5 1S10 38.6 10 38s4.8-1 12.5-1 12.5.4 12.5 1z"/></svg>