<svg xmlns="http://www.w3.org/2000/svg" width="60" height="60" version="1.0" viewBox="0 0 45 45"><path d="M20.4 6.4c-1 .8-1.5 2-1.1 2.9.4 1-.6 2.8-2.9 5.1-3.6 3.6-4.6 8.4-2.1 10.8 1.1.9 1.1 1.9.3 4.1-.9 2.4-.8 3.1.7 4.2 1.6 1.2 1.3 1.4-3.2 2-4.6.6-8.2 2.7-6.4 3.8 1.7.9 33.8.2 33.8-.8 0-1.2-6-3.4-9.4-3.4-2.4-.1-2.4-.2-.5-1.5 1.6-1.3 1.7-1.8.8-4.5-1-2.4-.9-3.3.2-4.2 2.6-2.1 1.7-6.8-2.1-10.6-1.9-1.9-3.3-3.9-3-4.3.7-1.2-.4-3.8-2-4.4-.7-.2-2.1.1-3.1.8zM24 8.5c0 .8-.7 1.5-1.5 1.5S21 9.3 21 8.5 21.7 7 22.5 7s1.5.7 1.5 1.5zm2.4 5.6c3.9 3.1 5 6.6 3.1 9.5-1.3 2-2.4 2.4-7 2.4s-5.7-.4-7-2.4c-1.9-2.9-.8-6.4 3.1-9.5 3.3-2.6 4.5-2.6 7.8 0zM28 28.5c1.1 1.3.4 1.5-5.5 1.5s-6.6-.2-5.5-1.5c.7-.9 2.9-1.5 5.5-1.5s4.8.6 5.5 1.5zm1 3.4c0 1.3-6.1 2.2-9.8 1.5-5.4-1.1-3.6-2.4 3.3-2.4 3.6 0 6.5.4 6.5.9zm6.9 5.7c.2.2-5.9.3-13.5.2-10.2-.1-12.3-.3-7.9-.8 5.5-.6 20.5-.2 21.4.6z"/><path d="M22.1 16.2c0 .9-.7 1.8-1.4 2-1 .2-.9.7.3 1.8 1.3 1.3 1.7 1.3 3.3-.3 1.3-1.3 1.4-1.7.3-1.7-.8 0-1.7-.8-1.9-1.8-.4-1.5-.5-1.5-.6 0z"/></svg>