<svg xmlns="http://www.w3.org/2000/svg" width="60" height="60" version="1.0" viewBox="0 0 45 45"><path d="M20.5 6c-.4.6-.4 2.3 0 3.7.7 3-.4 11.8-1.5 10.6-.4-.4-1.4-2.7-2.3-4.9-1.2-3.1-1.3-4.4-.4-5.3.8-.8.7-1.5-.6-2.8-1.6-1.6-1.8-1.6-3.4 0-1.5 1.4-1.5 1.8-.2 3.4 1 1.3 1.3 3.2.9 6.3l-.5 4.5-2.3-3.6c-1.2-2-2-4.3-1.7-5.1.3-.8-.1-2.1-1-2.8-1.3-1.1-1.9-1.1-3.2.3-1.4 1.4-1.4 1.8.4 4.1 1.2 1.4 2.4 4.7 2.8 7.3.3 2.7 1.3 5.8 2.1 7 1 1.5 1.2 3.6.8 6.1-.5 3.5-.4 4 1.7 4.5 3.1.9 17.7.9 20.8 0 2.1-.5 2.2-1 1.7-4.5-.4-2.5-.2-4.6.8-6.1.8-1.2 1.8-4.3 2.1-7 .4-2.6 1.6-5.9 2.8-7.3 1.8-2.3 1.8-2.7.4-4.1-1.3-1.4-1.9-1.4-3.2-.3-.9.7-1.3 2-1 2.8.3.8-.5 3.1-1.7 5.1l-2.3 3.6L32 17c-.4-3.1-.1-5 .9-6.3 1.3-1.6 1.3-2-.2-3.4-2.3-2.3-4.8-.1-4.1 3.5.5 2.8-2.2 10.9-3.3 9.8-.4-.3-.7-3.9-.7-7.9-.1-5.8-.4-7.2-1.8-7.5-.9-.2-1.9.2-2.3.8zM24 8c0 .5-.7 1-1.5 1S21 8.5 21 8c0-.6.7-1 1.5-1s1.5.4 1.5 1zm-9 1c0 .5-.4 1-1 1-.5 0-1-.5-1-1 0-.6.5-1 1-1 .6 0 1 .4 1 1zm17 0c0 .5-.4 1-1 1-.5 0-1-.5-1-1 0-.6.5-1 1-1 .6 0 1 .4 1 1zM7 12c0 .5-.4 1-1 1-.5 0-1-.5-1-1 0-.6.5-1 1-1 .6 0 1 .4 1 1zm33 0c0 .5-.4 1-1 1-.5 0-1-.5-1-1 0-.6.5-1 1-1 .6 0 1 .4 1 1zm-16.1 8.2c.9 3.6.8 3.8-1.3 3.8-2.2 0-2.3-.2-1.3-4.6.6-2.6 1.2-4.3 1.3-3.8.2.5.7 2.6 1.3 4.6zM18 23.1c0 .5-.7.9-1.5.9-1.1 0-1.5-1.1-1.5-4.3l.1-4.2 1.4 3.4c.8 1.8 1.5 3.7 1.5 4.2zM30 20c0 2.9-.4 4-1.5 4-.8 0-1.5-.3-1.5-.7 0-.9 2.3-7.3 2.7-7.3.2 0 .3 1.8.3 4zm-19.5 1c1.9 3.6 1.9 4 0 4-.8 0-1.5-.9-1.5-1.9 0-1.1-.3-2.6-.6-3.5-1.1-2.7.5-1.7 2.1 1.4zm25.8.7c-.3 1.9-1.1 3.3-1.9 3.3-1.8 0-1.8-.4.2-4.1 1.9-3.7 2.3-3.5 1.7.8zm-2 5.8c.2 1.1-20.6 2-23 1-.8-.2-1.1-1-.8-1.5.9-1.4 23.4-.9 23.8.5zM32 31.2c0 1-2.6 1.3-9.5 1.3s-9.5-.3-9.5-1.3c0-.9 2.6-1.2 9.5-1.2s9.5.3 9.5 1.2zm1.3 4.8c.5 1.9 0 2-10.8 2s-11.3-.1-10.8-2c.5-1.8 1.4-2 10.8-2s10.3.2 10.8 2z"/></svg>