<svg xmlns="http://www.w3.org/2000/svg" width="60" height="60" version="1.0" viewBox="0 0 45 45"><path d="M21.1 6.8c-1.2 1.2-1.2 1.5 0 2.2 1.1.7 1 1.2-.4 2.8-.9 1-1.7 2.3-1.7 2.9 0 .7-2 1-5.1 1-4.2-.2-5.4.2-7 2.2-2.8 3.4-2.4 5.8 1.6 9.8 2.6 2.6 3.5 4.4 3.5 6.7 0 4.1 2.8 5.6 10.5 5.6S33 38.5 33 34.4c0-2.3.9-4.1 3.5-6.7 4-4 4.4-6.4 1.6-9.8-1.6-2-2.8-2.4-7-2.2-3.1 0-5.1-.3-5.1-1 0-.6-.8-1.9-1.7-2.9-1.4-1.6-1.5-2.1-.3-2.8 1.1-.7 1.1-1-.1-2.3-1.3-1.2-1.6-1.2-2.8.1zm3.7 8.7c.1 1.1-.4 2.9-1.2 4-1.4 1.9-1.5 1.9-2.6-.7-.7-1.5-1-3.4-.6-4.3.8-2.2 4-1.5 4.4 1zm-5.7 4.4c4.4 4.5 3.9 6.4-2.3 7.9-4.8 1.1-5.3 1.1-7.5-1-2.8-2.6-3.1-7.3-.5-8.7 3.2-1.9 7.2-1.2 10.3 1.8zm17-1.9c2.7 1.5 2.5 6.1-.4 8.8-2.2 2.1-2.7 2.1-7.5 1-6.2-1.5-6.7-3.4-2.3-7.9 3.1-3 6.7-3.7 10.2-1.9zm-5.8 12.2c1.4 1.1.1 1.3-7.8 1.3-7.9 0-9.2-.2-7.8-1.3.9-.6 4.4-1.2 7.8-1.2 3.4 0 6.9.6 7.8 1.2zm-1.4 2.7c1.4.4 2.6 1.2 2.9 1.9.3.9-.3 1-2.3.2-3.4-1.3-10.6-1.3-14 0-2 .8-2.6.7-2.3-.2.8-2.3 10.1-3.5 15.7-1.9zm.5 4c.8 1.3-6 2.3-10.5 1.6-2.2-.4-3.7-1.1-3.3-1.6.7-1.2 13.1-1.2 13.8 0z"/></svg>