<svg xmlns="http://www.w3.org/2000/svg" width="60" height="60" version="1.0" viewBox="0 0 45 45"><path d="M13 8.9c0 1.1-1.9 5.4-4.1 9.6-4.6 8.6-4.5 11.6.7 12.9 2.1.6 3.3.1 5.8-2.1 1.7-1.6 3.9-3.5 4.9-4.2 3.2-2.5 2 1.6-1.7 5.7-1.9 2.1-3.8 5-4.1 6.5l-.7 2.7h25.5l-.6-6.9c-.3-3.8-1.1-8.8-1.8-11.2-1.6-5.1-6.5-10.5-10.5-11.5C24.8 10 23 9 22.3 8.1c-1-1.4-1.3-1.4-3.1.2-1.7 1.6-2.1 1.6-3.2.2-1.7-2.1-3-1.9-3 .4zm6.1 1.3c1-.7 1.9-.8 1.9-.3s1.3 1.1 3 1.4c7.9 1.6 11.9 7.9 12.7 19.9l.6 7.8H26.6c-12.2 0-12.6-.4-7.1-7 1.9-2.3 3.7-5.3 4-6.6.3-1.3.7-3.5 1-4.9.6-2.8-1.1-3.5-1.9-.8-.9 2.7-10.4 10.5-10.9 9-.3-.9-.7-.9-1.9 0-.8.7-1.8 1-2.1.6-1.6-1.5-.5-5.3 3.3-11.6 2.4-3.9 3.8-7.3 3.4-8-.5-.7-.1-.6 1 .2 1.4 1.2 2.2 1.2 3.7.3z"/><path d="M13.3 15.5c-.8 2.2.6 3.3 1.7 1.5 1.3-2 1.2-3 0-3-.6 0-1.3.7-1.7 1.5zM8 26c0 .5.5 1 1 1 .6 0 1-.5 1-1 0-.6-.4-1-1-1-.5 0-1 .4-1 1z"/></svg>