<svg xmlns="http://www.w3.org/2000/svg" width="60" height="60" version="1.0" viewBox="0 0 45 45"><path d="M19.6 9.6c-.9.8-1.6 2.4-1.6 3.5s-.8 3.1-1.7 4.5c-1.3 2.1-1.4 3.2-.6 5.5.9 2.3.8 3.1-.5 4.1-1.8 1.6-5.1 8.6-5.2 11 0 1.6 1.3 1.8 12.5 1.8S35 39.8 35 38.2c-.1-2.4-3.4-9.4-5.2-11-1.3-1-1.4-1.8-.5-4.1.8-2.3.7-3.4-.6-5.5-.9-1.4-1.7-3.4-1.7-4.5 0-2.3-2.5-5.1-4.5-5.1-.7 0-2.1.7-2.9 1.6zm5.8 1.9c.3.8.3 2.1 0 2.8-.3.8.2 2 1.1 2.7 1.8 1.5 2 6.1.3 7.8-1 1-.7 1.6 1 2.8 2.6 1.8 5.2 6.5 5.2 9.4 0 1.9-.6 2-10.5 2S12 38.9 12 37c0-2.9 2.6-7.6 5.2-9.4 1.7-1.2 2-1.8 1-2.8-1.7-1.7-1.5-6.3.3-7.8.9-.7 1.3-2 1-2.8-.7-1.9 1.2-4.2 3.5-4.2 1 0 2 .7 2.4 1.5z"/></svg>